<svg xmlns="http://www.w3.org/2000/svg" width="197.071" height="70.448" viewBox="0 0 197.071 70.448">
  <g id="_404-dark" data-name="404-dark" transform="translate(-861 -185.413)">
    <path id="Path_141" data-name="Path 141" d="M-123.068-27.832v-14.86l28.344-44.58H-81.24v19.813h-7.705l-15.273,24.216v.55h41.828v14.86Zm34.261,11.007V-32.373l.413-6.467V-87.273h17.887v70.448Z" transform="translate(984.068 272.685)" fill="#707070"/>
    <path id="Path_142" data-name="Path 142" d="M-123.068-27.832v-14.86l28.344-44.58H-81.24v19.813h-7.705l-15.273,24.216v.55h41.828v14.86Zm34.261,11.007V-32.373l.413-6.467V-87.273h17.887v70.448Z" transform="translate(1120.46 272.685)" fill="#707070"/>
    <path id="Path_137" data-name="Path 137" d="M718.185,625.658a31.815,31.815,0,0,1-2.416,12.369A31.1,31.1,0,0,1,709,648.173a31.642,31.642,0,0,1-10.434,6.862,37.44,37.44,0,0,1-26.966,0,32.174,32.174,0,0,1-10.486-6.862,30.675,30.675,0,0,1-6.81-10.145,33.045,33.045,0,0,1,.051-24.93,30.565,30.565,0,0,1,6.907-10.1,32.575,32.575,0,0,1,10.532-6.766,37,37,0,0,1,26.671.051,32.265,32.265,0,0,1,10.485,6.862,30.759,30.759,0,0,1,6.811,10.146A31.724,31.724,0,0,1,718.185,625.658Zm-16.14,0a16.176,16.176,0,0,0-1.4-6.765,16.576,16.576,0,0,0-3.771-5.314,17.567,17.567,0,0,0-5.462-3.482,16.845,16.845,0,0,0-18.17,3.527,17.452,17.452,0,0,0-3.72,5.365,15.967,15.967,0,0,0-1.4,6.669,15.55,15.55,0,0,0,1.355,6.425,18.114,18.114,0,0,0,3.625,5.365,16.842,16.842,0,0,0,5.364,3.675,16.216,16.216,0,0,0,6.573,1.35,16.791,16.791,0,0,0,6.573-1.3,17.174,17.174,0,0,0,5.41-3.573,17,17,0,0,0,3.669-5.314A16.07,16.07,0,0,0,702.045,625.658Z" transform="translate(274.498 -405.129)" fill="#f9020b"/>
  </g>
</svg>
