<svg width="110" height="32" viewBox="0 0 110 32" fill="none" xmlns="http://www.w3.org/2000/svg">
<path d="M110 28.5365C110 28.9542 109.918 29.3679 109.759 29.7539C109.6 30.1398 109.366 30.4904 109.072 30.7857C108.778 31.0809 108.429 31.315 108.044 31.4746C107.66 31.6342 107.248 31.7161 106.832 31.7157H3.17173C2.33155 31.7165 1.52543 31.3821 0.930637 30.7859C0.335847 30.1897 0.00109495 29.3806 0 28.5365V3.18335C0.00109444 2.33884 0.335714 1.52928 0.930386 0.932424C1.52506 0.335572 2.33117 0.00021921 3.17173 0H106.832C107.248 -1.42183e-08 107.66 0.0823459 108.044 0.242335C108.428 0.402323 108.778 0.63682 109.072 0.932433C109.366 1.22805 109.599 1.57898 109.758 1.9652C109.917 2.35142 109.999 2.76535 109.999 3.18335L110 28.5365Z" fill="white"/>
<path d="M110 28.5365C110 28.9542 109.918 29.3679 109.759 29.7539C109.6 30.1398 109.366 30.4904 109.072 30.7857C108.778 31.0809 108.429 31.315 108.044 31.4746C107.66 31.6342 107.248 31.7161 106.832 31.7157H3.17173C2.33155 31.7165 1.52543 31.3821 0.930637 30.7859C0.335847 30.1897 0.00109495 29.3806 0 28.5365V3.18335C0.00109444 2.33884 0.335714 1.52928 0.930386 0.932424C1.52506 0.335572 2.33117 0.00021921 3.17173 0H106.832C107.248 -1.42183e-08 107.66 0.0823459 108.044 0.242335C108.428 0.402323 108.778 0.63682 109.072 0.932433C109.366 1.22805 109.599 1.57898 109.758 1.9652C109.917 2.35142 109.999 2.76535 109.999 3.18335L110 28.5365Z" fill="black"/>
<path d="M24.156 15.6835C24.1321 13.0082 26.3363 11.7066 26.4371 11.646C25.1888 9.81733 23.2538 9.56747 22.5739 9.54755C20.9488 9.37573 19.3724 10.5246 18.5446 10.5246C17.7002 10.5246 16.4254 9.56415 15.0515 9.59238C13.2834 9.61977 11.6294 10.6482 10.7222 12.2453C8.85011 15.5017 10.2464 20.2871 12.04 22.9193C12.9372 24.2092 13.9857 25.6478 15.358 25.5971C16.7005 25.5423 17.202 24.738 18.8222 24.738C20.4274 24.738 20.8984 25.5971 22.2979 25.5648C23.7388 25.5423 24.646 24.2698 25.5118 22.9691C26.5487 21.4924 26.9651 20.0364 26.9816 19.9617C26.9485 19.9501 24.1841 18.8893 24.156 15.6835ZM21.5122 7.81601C22.2343 6.90873 22.7284 5.6744 22.5912 4.42181C21.5461 4.4683 20.2391 5.14813 19.4864 6.03549C18.8205 6.81742 18.2257 8.09906 18.3793 9.30434C19.5533 9.39233 20.7587 8.70917 21.5122 7.81601Z" fill="white"/>
<path d="M43.6019 25.4121H41.7256L40.6979 22.1673H37.1254L36.1464 25.4121H34.3197L37.8599 14.3654H40.046L43.6019 25.4121ZM40.388 20.806L39.4586 17.9214C39.3603 17.6267 39.1752 16.9328 38.9042 15.8404H38.8712C38.7621 16.3102 38.5878 17.0042 38.349 17.9214L37.4352 20.806H40.388ZM52.6883 21.3314C52.6883 22.6861 52.3223 23.7569 51.5895 24.543C50.9335 25.2427 50.118 25.5922 49.1456 25.5922C48.0955 25.5922 47.3404 25.2162 46.8819 24.4624V28.6419H45.1204V20.0647C45.1204 19.2139 45.0981 18.3414 45.0552 17.4466H46.6043L46.7026 18.7092H46.7356C47.323 17.7579 48.2145 17.2823 49.4108 17.2823C50.3461 17.2823 51.1268 17.6533 51.7514 18.3962C52.3752 19.1408 52.6883 20.1186 52.6883 21.3314ZM50.8938 21.3961C50.8938 20.6208 50.7203 19.9817 50.3717 19.4778C49.9908 18.954 49.4794 18.6917 48.8383 18.6917C48.4037 18.6917 48.0088 18.8378 47.656 19.1259C47.3024 19.4164 47.0711 19.7957 46.9628 20.2656C46.9145 20.4413 46.887 20.6221 46.881 20.8043V22.1332C46.881 22.7118 47.0578 23.2007 47.4114 23.6008C47.765 23.9993 48.2244 24.1993 48.7895 24.1993C49.4529 24.1993 49.9693 23.9412 50.3386 23.429C50.7087 22.9152 50.8938 22.2378 50.8938 21.3961ZM61.8069 21.3314C61.8069 22.6861 61.4409 23.7569 60.7081 24.543C60.0513 25.2427 59.2366 25.5922 58.2634 25.5922C57.2133 25.5922 56.4582 25.2162 55.9996 24.4624V28.6419H54.2382V20.0647C54.2382 19.2139 54.2159 18.3414 54.1729 17.4466H55.722L55.8204 18.7092H55.8534C56.44 17.7579 57.3315 17.2823 58.5286 17.2823C59.463 17.2823 60.2438 17.6533 60.87 18.3962C61.4929 19.1408 61.8069 20.1186 61.8069 21.3314ZM60.0116 21.3961C60.0116 20.6208 59.8373 19.9817 59.4886 19.4778C59.1077 18.954 58.598 18.6917 57.9569 18.6917C57.5223 18.6917 57.1274 18.8378 56.773 19.1259C56.4193 19.4164 56.1888 19.7957 56.0806 20.2656C56.0269 20.4847 55.998 20.6632 55.998 20.8043V22.1332C55.998 22.7118 56.1756 23.2007 56.5276 23.6008C56.8812 23.9984 57.3405 24.1993 57.9073 24.1993C58.5716 24.1993 59.0879 23.9412 59.4564 23.429C59.8265 22.9152 60.0116 22.2378 60.0116 21.3961ZM72.002 22.3134C72.002 23.2539 71.6749 24.0184 71.0247 24.6085C70.3092 25.2527 69.3103 25.5756 68.0297 25.5756C66.8466 25.5756 65.8982 25.3465 65.1827 24.8874L65.59 23.4124C66.3625 23.8723 67.211 24.1014 68.1347 24.1014C68.7989 24.1014 69.3153 23.9503 69.6838 23.6506C70.0531 23.3501 70.2398 22.9484 70.2398 22.447C70.2398 21.9979 70.0853 21.6219 69.7821 21.3156C69.4772 21.0102 68.9732 20.7254 68.2652 20.464C66.3402 19.7426 65.3768 18.6876 65.3768 17.2997C65.3768 16.3933 65.7172 15.6512 66.3964 15.0709C67.0755 14.4915 67.976 14.2018 69.0963 14.2018C70.0968 14.2018 70.9305 14.377 71.5922 14.7265L71.1502 16.1691C70.5273 15.8305 69.8242 15.6611 69.0377 15.6611C68.4164 15.6611 67.9289 15.8147 67.5803 16.1202C67.287 16.3933 67.1383 16.7261 67.1383 17.1212C67.1383 17.557 67.3076 17.9189 67.6447 18.2028C67.9372 18.4643 68.4709 18.749 69.2426 19.0545C70.1894 19.438 70.885 19.8846 71.3303 20.3976C71.779 20.9105 72.002 21.5505 72.002 22.3134ZM77.8407 18.7747H75.8991V22.6421C75.8991 23.6257 76.2412 24.1163 76.9269 24.1163C77.2417 24.1163 77.5028 24.0897 77.7093 24.0341L77.7581 25.378C77.4111 25.5083 76.9542 25.5739 76.3882 25.5739C75.6926 25.5739 75.149 25.3606 74.7565 24.9339C74.3657 24.5073 74.1691 23.7926 74.1691 22.7865V18.7714H73.0125V17.4433H74.1691V15.9849L75.8991 15.4602V17.4433H77.8407V18.7747ZM86.5834 21.3638C86.5834 22.5881 86.2347 23.5934 85.5391 24.3794C84.8112 25.1888 83.8429 25.5922 82.6359 25.5922C81.4709 25.5922 80.5448 25.2045 79.8541 24.4301C79.1634 23.654 78.8181 22.6761 78.8181 21.4966C78.8181 20.2622 79.175 19.2512 79.8863 18.4651C80.5993 17.6782 81.5593 17.2848 82.7664 17.2848C83.9297 17.2848 84.8641 17.6732 85.5713 18.4485C86.2471 19.2006 86.5834 20.1718 86.5834 21.3638ZM84.7575 21.4044C84.7575 20.6748 84.6005 20.0489 84.2858 19.5251C83.9164 18.8926 83.3877 18.5764 82.7028 18.5764C81.9972 18.5764 81.4561 18.8926 81.0876 19.5251C80.772 20.0489 80.615 20.6856 80.615 21.4376C80.615 22.1681 80.772 22.7957 81.0876 23.3178C81.4685 23.9503 81.9997 24.2666 82.6879 24.2666C83.3613 24.2666 83.8892 23.9436 84.2709 23.302C84.5948 22.7658 84.7575 22.1357 84.7575 21.4044ZM92.3113 19.003C92.1281 18.9698 91.9423 18.9534 91.7561 18.954C91.1365 18.954 90.6573 19.1881 90.3202 19.6596C90.0277 20.0747 89.8807 20.5993 89.8807 21.2326V25.4121H88.1193V19.9551C88.1208 19.119 88.1038 18.2829 88.068 17.4475H89.6023L89.6667 18.9715H89.7155C89.9022 18.4477 90.1946 18.0252 90.5962 17.7089C90.9637 17.4326 91.4103 17.2829 91.8693 17.2823C92.0321 17.2823 92.1791 17.2939 92.3097 17.3146L92.3113 19.003ZM100.189 21.0525C100.193 21.3215 100.172 21.5903 100.125 21.8552H94.8403C94.8601 22.6421 95.1162 23.2447 95.607 23.6598C96.0523 24.03 96.6281 24.2159 97.3354 24.2159C98.1178 24.2159 98.8316 24.0914 99.4735 23.8399L99.7495 25.0676C98.9993 25.3963 98.1136 25.5598 97.0916 25.5598C95.8623 25.5598 94.8973 25.1962 94.195 24.4708C93.4944 23.7444 93.1433 22.7683 93.1433 21.5456C93.1433 20.3453 93.4696 19.345 94.1232 18.5473C94.8072 17.6956 95.7317 17.2698 96.895 17.2698C98.0376 17.2698 98.9026 17.6956 99.49 18.5473C99.9552 19.2222 100.189 20.0589 100.189 21.0525ZM98.5094 20.5935C98.5218 20.068 98.4061 19.6156 98.1673 19.233C97.8625 18.7399 97.3932 18.4942 96.7645 18.4942C96.1886 18.4942 95.7193 18.7341 95.3624 19.2155C95.0691 19.5982 94.8948 20.0581 94.8411 20.5918L98.5094 20.5935Z" fill="white"/>
<path d="M36.6174 10.4598C36.1274 10.4598 35.7036 10.4358 35.3508 10.3951V5.05436C35.8442 4.97778 36.3428 4.94003 36.8421 4.94147C38.8621 4.94147 39.7924 5.94005 39.7924 7.56784C39.7924 9.44548 38.6936 10.4598 36.6174 10.4598ZM36.9131 5.62628C36.6405 5.62628 36.4083 5.64288 36.2158 5.68273V9.74264C36.3199 9.75925 36.5199 9.76672 36.8008 9.76672C38.1243 9.76672 38.8778 9.00969 38.8778 7.59191C38.8778 6.3277 38.1962 5.62628 36.9131 5.62628ZM42.6915 10.5005C41.553 10.5005 40.8152 9.64636 40.8152 8.48674C40.8152 7.27814 41.5687 6.41652 42.7559 6.41652C43.8779 6.41652 44.6322 7.23 44.6322 8.42282C44.6322 9.64636 43.8548 10.5005 42.6915 10.5005ZM42.7245 7.05236C42.0991 7.05236 41.6984 7.64005 41.6984 8.46183C41.6984 9.26784 42.1074 9.85553 42.7163 9.85553C43.3252 9.85553 43.7341 9.22717 43.7341 8.44523C43.7341 7.64836 43.3334 7.05236 42.7245 7.05236ZM51.1244 6.49704L49.9057 10.4117H49.1118L48.607 8.71169C48.4815 8.29585 48.377 7.87391 48.2939 7.44748H48.2773C48.2137 7.87414 48.0931 8.30163 47.965 8.71169L47.428 10.4117H46.6258L45.479 6.49704H46.3688L46.81 8.35807C46.9141 8.80133 47.0017 9.21969 47.0744 9.61481H47.0909C47.1545 9.28527 47.2586 8.87355 47.4115 8.36637L47.965 6.49787H48.6706L49.2002 8.32653C49.3282 8.76979 49.4323 9.20475 49.5133 9.61564H49.5364C49.5926 9.21305 49.681 8.78556 49.8008 8.32653L50.2742 6.49787L51.1244 6.49704ZM55.6106 10.4117H54.7447V8.16383C54.7447 7.47155 54.4803 7.12458 53.959 7.12458C53.4459 7.12458 53.0932 7.56784 53.0932 8.08332V10.4117H52.2273V7.61598C52.2273 7.26984 52.2191 6.89879 52.1951 6.49621H52.9568L52.9973 7.1005H53.0213C53.2543 6.68214 53.7268 6.41652 54.2564 6.41652C55.0744 6.41652 55.6114 7.04489 55.6114 8.06755L55.6106 10.4117ZM57.9982 10.4117H57.1316V4.70074H57.9982V10.4117ZM61.1551 10.5005C60.0174 10.5005 59.2788 9.64636 59.2788 8.48674C59.2788 7.27814 60.0323 6.41652 61.2187 6.41652C62.3415 6.41652 63.095 7.23 63.095 8.42282C63.0958 9.64636 62.3175 10.5005 61.1551 10.5005ZM61.1873 7.05236C60.5619 7.05236 60.1612 7.64005 60.1612 8.46183C60.1612 9.26784 60.571 9.85553 61.1782 9.85553C61.7879 9.85553 62.1961 9.22717 62.1961 8.44523C62.1969 7.64836 61.797 7.05236 61.1873 7.05236ZM66.5088 10.4117L66.446 9.96096H66.4228C66.1585 10.3237 65.7726 10.5005 65.2835 10.5005C64.5854 10.5005 64.0897 10.0091 64.0897 9.34836C64.0897 8.38215 64.9233 7.88244 66.3667 7.88244V7.81022C66.3667 7.29474 66.0948 7.03659 65.5578 7.03659C65.1737 7.03659 64.8366 7.13371 64.54 7.32711L64.364 6.75519C64.7242 6.52941 65.1737 6.41652 65.7016 6.41652C66.7194 6.41652 67.2333 6.95607 67.2333 8.036V9.47785C67.2333 9.87297 67.2507 10.1793 67.2895 10.4125L66.5088 10.4117ZM66.3898 8.46183C65.4281 8.46183 64.9456 8.69591 64.9456 9.25124C64.9456 9.66213 65.1943 9.86301 65.5397 9.86301C65.98 9.86301 66.3898 9.52516 66.3898 9.06613V8.46183ZM71.4378 10.4117L71.3973 9.78332H71.3733C71.1247 10.2581 70.7066 10.5005 70.1225 10.5005C69.1831 10.5005 68.4875 9.67043 68.4875 8.50251C68.4875 7.27814 69.2087 6.41569 70.1936 6.41569C70.7149 6.41569 71.0842 6.59249 71.2924 6.94777H71.3097V4.70074H72.1764V9.35666C72.1764 9.73517 72.1855 10.0896 72.2086 10.4117H71.4378ZM71.3097 8.10822C71.3097 7.56037 70.9487 7.09303 70.3976 7.09303C69.7557 7.09303 69.3632 7.66496 69.3632 8.47013C69.3632 9.25954 69.7706 9.79992 70.3803 9.79992C70.9247 9.79992 71.3097 9.32429 71.3097 8.76066V8.10822ZM77.6714 10.5005C76.5337 10.5005 75.7959 9.64636 75.7959 8.48674C75.7959 7.27814 76.5494 6.41652 77.7358 6.41652C78.8586 6.41652 79.6121 7.23 79.6121 8.42282C79.6129 9.64636 78.8355 10.5005 77.6714 10.5005ZM77.7036 7.05236C77.079 7.05236 76.6783 7.64005 76.6783 8.46183C76.6783 9.26784 77.0872 9.85553 77.6953 9.85553C78.305 9.85553 78.7132 9.22717 78.7132 8.44523C78.7148 7.64836 78.3141 7.05236 77.7036 7.05236ZM84.2685 10.4117H83.4018V8.16383C83.4018 7.47155 83.1374 7.12458 82.6161 7.12458C82.103 7.12458 81.7511 7.56784 81.7511 8.08332V10.4117H80.8844V7.61598C80.8844 7.26984 80.8761 6.89879 80.8522 6.49621H81.6139L81.6544 7.1005H81.6784C81.9105 6.68214 82.3839 6.41569 82.9127 6.41569C83.7306 6.41569 84.2685 7.04406 84.2685 8.06671V10.4117ZM90.0939 7.14948H89.1413V9.05036C89.1413 9.53429 89.3082 9.77585 89.6453 9.77585C89.7981 9.77585 89.9262 9.75925 90.0294 9.73517L90.0534 10.3959C89.8857 10.4607 89.661 10.493 89.3817 10.493C88.6993 10.493 88.2911 10.1145 88.2911 9.12341V7.14948H87.7227V6.49704H88.2911V5.77985L89.1413 5.52169V6.49621H90.0939V7.14948ZM94.6776 10.4117H93.8126V8.18044C93.8126 7.47985 93.549 7.12541 93.0268 7.12541C92.5782 7.12541 92.1602 7.4317 92.1602 8.05177V10.4117H91.2952V4.70074H92.1602V7.05236H92.1775C92.4502 6.6257 92.8451 6.41569 93.3491 6.41569C94.1736 6.41569 94.6776 7.05983 94.6776 8.08332V10.4117ZM99.3736 8.66354H96.7753C96.7918 9.4048 97.2801 9.82316 98.003 9.82316C98.3871 9.82316 98.7407 9.75842 99.053 9.63805L99.1877 10.2424C98.8192 10.4034 98.3855 10.4839 97.8807 10.4839C96.6621 10.4839 95.9408 9.71027 95.9408 8.51081C95.9408 7.31051 96.6794 6.40822 97.7832 6.40822C98.7788 6.40822 99.4034 7.14948 99.4034 8.26925C99.4089 8.4014 99.399 8.53375 99.3736 8.66354ZM98.5796 8.04347C98.5796 7.43918 98.2764 7.01251 97.7229 7.01251C97.2255 7.01251 96.8323 7.44748 96.7761 8.04347H98.5796Z" fill="white"/>
</svg>
