<svg xmlns="http://www.w3.org/2000/svg" width="106.768" height="68.23" viewBox="0 0 106.768 68.23">
  <g id="logo2" transform="translate(-230.97 -305)">
    <path id="Path_22" data-name="Path 22" d="M312.72,335.1l-2.741-1.271c-1.163-.7-3.587-2.138-6.214-3.6h0s-6.137-4.129-11.756-4.9c-3.77.022-9.789,3.08-14.554,5.907l0-.013-5.577-5.124h-4.06l.072.12c-4.006,2.316-6.541,3.929-8.116,5.022a27.066,27.066,0,0,0-3.053-4.773l-10.529,5.9.175-1.147-2.47-2.871a70.4,70.4,0,0,1,21.641-14.444c38.143,18.973,59.414,9.964,59.414,9.964a33.854,33.854,0,0,0,2.238-4.68c-21.5,10.689-64.247-14.2-64.247-14.2l-25.5,15.849-.023-.027-1.067.676a2.748,2.748,0,0,0-.938,3.676l4.372,6.12-4.6,30.458,6.248,2.24,3.621-24.1a44.957,44.957,0,0,1,8.421-3.991s1.754,6.24-.9,6.907c-.259.067-6.2,2.662-6.2,2.662s1.113,8.258,1.548,8.333a93.019,93.019,0,0,0,9.149-4.449,38.452,38.452,0,0,0,3.61,4.329c.431.089,5.31-6.862,5.31-6.862s-3.175-3.822-3.3-4.049c-2.466-4.347,6.126-9.991,6.126-9.991s.61,1.369,1.327,3.444l-3.865,25.551,6.225,2.24,0-.022h0l3.831-25.329.008,0,0-.009.412-2.724c.008,0,8.634-6.538,12.05-7.649a8.619,8.619,0,0,1,2.3.6c-5.165,5.4-14.6,16.973-14.2,19.511.431,2.676,4.727,9.92,6.278,12.467a1,1,0,0,0,1.51.213c1.4-1.013,4.033-2.916,5.653-4.089a1.7,1.7,0,0,0,.492-2.253l-2.691-3.658a1.122,1.122,0,0,0-1.59-.187l-3.072,2.067s-.694-.1-1.864-3.742c3.945-8.08,12.271-14.067,16.186-16.556,1.391.947,2.6,1.849,3.4,2.462-2.665,3.2-7.029,5.48-9.557,5.48-1.616,10.7,5.371,11.662,9.164,13.964s2.607,7.2,2.607,7.2l5.459,2.24,4.235-28A.824.824,0,0,0,312.72,335.1Zm-7.872,12.164a8.4,8.4,0,0,1-5.638-5.276c3.835-1.338,7.357-6.093,7.357-6.093S305.847,340.653,304.848,347.267Z" transform="translate(-2.264)"/>
    <path id="Path_23" data-name="Path 23" d="M383.914,419.15c-1.627.373-5.156,4.382-5.444,6.018-.209,1.178,3.711,2.355,5.916,2.92a3,3,0,0,0,2.7-.764c1.551-1.4,3.987-3.667,3.88-3.938C389.892,420.639,383.914,419.15,383.914,419.15Z" transform="translate(-91.088 -63.417)" fill="#fe1d23"/>
    <path id="Path_24" data-name="Path 24" d="M466.243,351.573c-5.093.027-13.04,3.84-18.316,6.711l-7.809-3.138-2.849.867,5.613,3.315-4.693,25.849h.133l7.258,2.24,4.587-26s10.067-6.538,14.053-7.649C467.132,353.978,469.1,351.911,466.243,351.573Z" transform="translate(-129.9 -23.435)"/>
    <path id="Path_25" data-name="Path 25" d="M330.948,455.983c-8.333.058-16.662.182-25,.12l-25-.062c-8.329-.022-16.662-.013-24.991-.169-8.333-.093-16.662-.356-25-.711,8.329-.356,16.662-.618,25-.711,8.329-.16,16.662-.147,24.991-.169l25-.062c8.329-.062,16.662.062,25,.12Z" transform="translate(0 -82.89)" fill="#fe1d23"/>
  </g>
</svg>
