<svg xmlns="http://www.w3.org/2000/svg" width="137.545" height="52.231" viewBox="0 0 137.545 52.231">
  <g id="logo" transform="translate(1745 965)">
    <g id="Group_19" data-name="Group 19" transform="translate(-1666.975 -918.396)">
      <path id="Path_11" data-name="Path 11" d="M470.689,446.473v-.489h1.418v.886h-.532v4.737h-.886V449.1l-2.658,1.021-.317-.823.569-.218a.952.952,0,0,0-.208-.344.861.861,0,0,0-.631-.261H467v-.625a1.891,1.891,0,0,1,.565-1.332,1.787,1.787,0,0,1,1.306-.539h.4A2.231,2.231,0,0,1,470.689,446.473Zm0,1.679a1.446,1.446,0,0,0-.417-.876,1.385,1.385,0,0,0-1-.407h-.4a.957.957,0,0,0-.625.221.979.979,0,0,0-.344.575,1.814,1.814,0,0,1,.949.631,1.9,1.9,0,0,1,.255.46Z" transform="translate(-467 -445.98)"/>
      <path id="Path_12" data-name="Path 12" d="M487.07,446.876h-5.16v-.886H488.5v.886h-.542v4.737h-.886v-2.45a.645.645,0,0,0-.188-.46.655.655,0,0,0-.466-.188h-.063a.575.575,0,0,0-.43.182.609.609,0,0,0-.179.443v.324h-.886v-.324a.621.621,0,0,0-.615-.625h-.083a.786.786,0,0,0-.582.245.808.808,0,0,0-.238.588v.261a.847.847,0,0,0,.85.85h.469v.886h-.469a1.744,1.744,0,0,1-1.736-1.739v-.261a1.716,1.716,0,0,1,1.709-1.712h.083a1.463,1.463,0,0,1,1.058.433,1.422,1.422,0,0,1,1.048-.433h.063a1.514,1.514,0,0,1,.661.145v-.9Z" transform="translate(-476.981 -445.987)"/>
      <path id="Path_13" data-name="Path 13" d="M503.657,451.613a1.851,1.851,0,0,1-1.845-1.855v-1.673a2,2,0,0,1,.38-1.21h-.922v-.886h2.641v.886a1.219,1.219,0,0,0-1.21,1.22v1.663a.941.941,0,0,0,.281.684.924.924,0,0,0,.678.284h.162v.886Z" transform="translate(-489.941 -445.987)"/>
      <path id="Path_14" data-name="Path 14" d="M513.477,447.868v3.752h-.886l-3.355-1.574v-.6a1.737,1.737,0,0,1,.354-1.061,1.967,1.967,0,0,1,.939-.681c.264-.089.579-.188.939-.294s.684-.2.969-.274l.152-.046v-.2h-3.9V446H516v.886h-2.522v.1h.344a1.653,1.653,0,0,1,1.22.509,1.682,1.682,0,0,1,.506,1.226v.083a1.558,1.558,0,0,1-1.554,1.547v-.886a.654.654,0,0,0,.476-.2.637.637,0,0,0,.2-.466v-.083a.821.821,0,0,0-.248-.6.811.811,0,0,0-.595-.248h-.341Zm-.886,2.777V448l-.073.016c-.278.079-.575.162-.889.255s-.585.175-.81.255a1.029,1.029,0,0,0-.506.36.907.907,0,0,0-.188.552v.046Z" transform="translate(-494.908 -445.993)"/>
      <path id="Path_15" data-name="Path 15" d="M535.442,446.876H534.9v-.886h5.514v.886h-.542v4.737h-.886v-.975a1,1,0,0,0-.311-.741,1.026,1.026,0,0,0-.747-.307H537.8a1.9,1.9,0,0,1-.542,1.041,1.847,1.847,0,0,1-1.365.578h-.407v-.886h.407a1,1,0,0,0,.74-.311,1.035,1.035,0,0,0,.307-.754v-.126a1.055,1.055,0,0,0-1.058-1.058h-.443v-1.2Zm3.544,0h-2.668v.36a1.99,1.99,0,0,1,1.084.678,1.8,1.8,0,0,1,.38.787h.145a1.9,1.9,0,0,1,1.058.307v-2.132Z" transform="translate(-512.454 -445.987)"/>
      <path id="Path_16" data-name="Path 16" d="M554.907,446.876h-3.9v-.886h5.326v.886h-.542v4.737h-.886l-3.355-1.583v-.6a1.77,1.77,0,0,1,.354-1.068,1.937,1.937,0,0,1,.939-.688c.264-.089.572-.185.922-.291l.932-.271c.079-.023.149-.046.208-.063Zm0,3.752.007-2.658c-.255.073-.542.155-.863.255-.35.1-.655.2-.916.281a1.133,1.133,0,0,0-.509.367.9.9,0,0,0-.192.555v.046Z" transform="translate(-523.239 -445.987)"/>
      <path id="Path_17" data-name="Path 17" d="M571.762,446.876h-.542v-.886h5.514v.886h-.542v4.737h-.886v-.975A1,1,0,0,0,575,449.9a1.026,1.026,0,0,0-.747-.307h-.126a1.9,1.9,0,0,1-.542,1.041,1.847,1.847,0,0,1-1.365.578h-.407v-.886h.407a1,1,0,0,0,.74-.311,1.036,1.036,0,0,0,.307-.754v-.126a1.055,1.055,0,0,0-1.058-1.058h-.443Zm3.544,0h-2.668v.36a1.99,1.99,0,0,1,1.084.678,1.8,1.8,0,0,1,.38.787h.146a1.9,1.9,0,0,1,1.058.307Z" transform="translate(-536.768 -445.987)"/>
      <path id="Path_18" data-name="Path 18" d="M590.87,451.613l-2.37-2.106.578-.661,2.377,2.106Zm-.883-2.975a1.292,1.292,0,0,1-.942-.384,1.321,1.321,0,0,1,0-1.874,1.3,1.3,0,0,1,.942-.39,1.332,1.332,0,0,1,1.326,1.329,1.258,1.258,0,0,1-.39.935A1.28,1.28,0,0,1,589.988,448.638Zm0-1.762a.446.446,0,0,0-.443.436.411.411,0,0,0,.132.307.427.427,0,0,0,.311.129.446.446,0,0,0,.443-.436A.411.411,0,0,0,590.3,447,.433.433,0,0,0,589.984,446.876Z" transform="translate(-548.335 -445.987)"/>
      <path id="Path_19" data-name="Path 19" d="M601.967,446.876h-3.9v-.886H603.4v.886h-.542v4.737h-.886l-3.355-1.583v-.6a1.77,1.77,0,0,1,.354-1.068,1.937,1.937,0,0,1,.939-.688c.264-.089.572-.185.922-.291l.932-.271c.079-.023.149-.046.208-.063Zm0,3.752.007-2.658c-.255.073-.542.155-.863.255-.35.1-.655.2-.916.281a1.133,1.133,0,0,0-.509.367.9.9,0,0,0-.192.555v.046Z" transform="translate(-554.742 -445.987)"/>
      <path id="Path_20" data-name="Path 20" d="M614.152,446.876h-.542v-.886h1.97v.886h-.542v4.737h-.886Z" transform="translate(-565.145 -445.987)"/>
      <path id="Path_21" data-name="Path 21" d="M619.562,446.876h-.542v-.886h5v.886h-3.57v2.06l1.266-.912h.245a1.524,1.524,0,0,1,1.517,1.527v2.063h-.886V449.55a.6.6,0,0,0-.172-.433.682.682,0,0,0-.433-.208l-1.54,1.121h-.886v-3.154Z" transform="translate(-568.766 -445.987)"/>
    </g>
    <path id="Path_22" data-name="Path 22" d="M302.4,327.39l-2.377-.945c-1.008-.519-3.111-1.59-5.388-2.674h0s-5.322-3.071-10.195-3.646c-3.269.017-8.489,2.291-12.621,4.393l0-.01L266.99,320.7H263.47l.063.089c-3.474,1.722-5.673,2.922-7.038,3.735a20.015,20.015,0,0,0-2.648-3.55l-9.13,4.39.152-.853-2.142-2.135a62.238,62.238,0,0,1,18.767-10.744c33.077,14.112,51.523,7.411,51.523,7.411a23.921,23.921,0,0,0,1.94-3.481C296.309,323.509,259.242,305,259.242,305L237.13,316.788l-.02-.02-.926.5a1.883,1.883,0,0,0-.813,2.734l3.792,4.552-3.993,22.654,5.418,1.666,3.14-17.927a42.33,42.33,0,0,1,7.3-2.969s1.521,4.641-.78,5.137c-.225.05-5.378,1.98-5.378,1.98s.965,6.142,1.342,6.2c.248.036,4.8-1.861,7.934-3.309a30.277,30.277,0,0,0,3.131,3.22c.374.066,4.6-5.1,4.6-5.1s-2.754-2.843-2.863-3.012c-2.139-3.233,5.312-7.431,5.312-7.431s.529,1.018,1.15,2.562l-3.352,19,5.4,1.666,0-.017h0l3.322-18.839.007,0,0-.007.357-2.026c.007,0,7.487-4.863,10.449-5.689a8.494,8.494,0,0,1,1.993.443c-4.479,4.02-12.664,12.625-12.311,14.512.374,1.99,4.1,7.378,5.445,9.273a.957.957,0,0,0,1.309.159c1.216-.754,3.5-2.169,4.9-3.041a1.157,1.157,0,0,0,.426-1.676l-2.334-2.721a1.083,1.083,0,0,0-1.379-.139l-2.664,1.537s-.6-.076-1.617-2.783c3.421-6.01,10.641-10.463,14.036-12.314,1.207.7,2.255,1.375,2.952,1.831-2.311,2.38-6.1,4.076-8.288,4.076-1.4,7.957,4.658,8.674,7.947,10.387s2.261,5.359,2.261,5.359l4.734,1.666,3.673-20.826A.588.588,0,0,0,302.4,327.39Zm-6.826,9.048c-3.96-1.051-4.889-3.924-4.889-3.924,3.326-1,6.38-4.532,6.38-4.532S296.444,331.519,295.578,336.438Z" transform="translate(-1978.698 -1270)"/>
    <path id="Path_23" data-name="Path 23" d="M382.517,419.15c-1.21.278-3.835,3.259-4.05,4.476-.155.876,2.76,1.752,4.4,2.172a2.233,2.233,0,0,0,2.007-.569c1.154-1.045,2.965-2.727,2.886-2.929C386.964,420.257,382.517,419.15,382.517,419.15Z" transform="translate(-2074.705 -1346.415)" fill="#fe1d23"/>
    <path id="Path_24" data-name="Path 24" d="M502.674,352.67l2.83-3.259.443-.512c-21.983-4.023-34.327.294-34.363.307h0l-.731,1.326,1.5,1.326c.02.017.036.033.056.05h0l.251.225c-.945.456-1.851.919-2.691,1.365a11.139,11.139,0,0,0-3.4-1.993c-1.064-.284-1.352.4-1.408.988a21.468,21.468,0,0,0-6.34-2.043c-3.788.02-9.7,2.856-13.623,4.992l-5.808-2.334-2.119.645,4.175,2.466-3.491,19.226h.1l5.4,1.666,3.411-19.339s7.488-4.863,10.453-5.689c2.165.155,5.226,1.782,7.5,3.187l-.81,4.6a73.2,73.2,0,0,0-7.233-4.42c-1.845-.83-3.613,1.382-3.613,1.382l-5.7,6.631s-.529,5.193-.145,5.524,6.549,4.532,7.074,4.7a10.706,10.706,0,0,0,2.859-.552l3.838-3.59s-2.77-3.094-3.071-3.259S455,369.318,455,369.318s-2.264-.939-2.3-1.656,4.377-5.084,4.569-4.919,5.233.717,5.23,5.745l-1.226,6.962,5.95,1.666,3.683-20.892s1.6-1.041,3.6-2.228l-3.782,21.454,5.4,1.666,3.759-21.319-3.574-2.85h-.007l-1.987-1.583,4.423,1.97c6.545-3.1,12.436-4.225,17.891-3.454-1.177.2-11.6,4.856-11.911,5.074a5.027,5.027,0,0,0-.433,2.516c.149.026,5.329,1.507,5.828,4.82a15.354,15.354,0,0,0-5.428-.813c-.489.278-4.469,8.122-3.868,9.392s6.889,4.807,6.889,4.807a51.068,51.068,0,0,0,5.1-6.354,6.748,6.748,0,0,1,4.664,6.132l5.4,1.666,3.759-21.319Zm-8.727,11.249a12.127,12.127,0,0,0-.489-5.448c1.993-1.815,6.555-3.825,7.752-4.334l-2.6,14.73A10.9,10.9,0,0,0,493.947,363.92Z" transform="translate(-2114.072 -1298.239)"/>
    <path id="Path_25" data-name="Path 25" d="M305.333,455.527c-6.2.043-12.393.136-18.591.089l-18.591-.046c-6.195-.017-12.393-.01-18.588-.126-6.2-.069-12.393-.264-18.591-.529,6.195-.264,12.393-.46,18.591-.529,6.195-.119,12.393-.109,18.588-.126l18.591-.046c6.195-.046,12.393.046,18.591.089Z" transform="translate(-1975.97 -1369.88)" fill="#fe1d23"/>
  </g>
</svg>
